<svg width="16" height="16" viewBox="0 0 16 16" fill="none" xmlns="http://www.w3.org/2000/svg">
<g opacity="0.7">
<path d="M2.66634 13.3327C2.29968 13.3327 1.98568 13.202 1.72434 12.9407C1.46301 12.6794 1.33256 12.3656 1.33301 11.9994V3.99935C1.33301 3.63268 1.46368 3.31868 1.72501 3.05735C1.98634 2.79602 2.30012 2.66557 2.66634 2.66602H6.66634L7.99968 3.99935H13.333C13.6997 3.99935 14.0137 4.13002 14.275 4.39135C14.5363 4.65268 14.6668 4.96646 14.6663 5.33268V11.9994C14.6663 12.366 14.5357 12.68 14.2743 12.9414C14.013 13.2027 13.6992 13.3331 13.333 13.3327H2.66634ZM2.66634 11.9994H13.333V5.33268H7.44968L6.11634 3.99935H2.66634V11.9994Z" fill="white"/>
</g>
</svg>
