<svg width="19" height="20" viewBox="0 0 19 20" fill="none" xmlns="http://www.w3.org/2000/svg">
<g opacity="0.7">
<path d="M16.4773 5.36719C16.7535 5.36719 16.9773 5.14333 16.9773 4.86719C16.9773 4.59105 16.7535 4.36719 16.4773 4.36719V5.36719ZM8.99454 15.7025H9.49454V14.7025H8.99454V15.7025ZM2.41602 14.7025H1.91602V15.7025H2.41602V14.7025ZM16.4773 4.36719H5.10348V5.36719H16.4773V4.36719ZM4.30348 5.16719V15.2025H5.30348V5.16719H4.30348ZM4.80348 15.7025H8.99454V14.7025H4.80348V15.7025ZM4.80348 14.7025H2.41602V15.7025H4.80348V14.7025ZM5.10348 4.36719C4.66165 4.36719 4.30348 4.72536 4.30348 5.16719H5.30348C5.30348 5.27765 5.21394 5.36719 5.10348 5.36719V4.36719Z" fill="white"/>
<path d="M16.779 6.93359H13.0348C12.8691 6.93359 12.7348 7.0679 12.7348 7.23358L12.7344 14.879C12.7344 15.0447 12.8687 15.179 13.0344 15.179H16.779C16.9447 15.179 17.079 15.0447 17.079 14.879V7.23359C17.079 7.06791 16.9447 6.93359 16.779 6.93359Z" stroke="white" stroke-linejoin="round"/>
<rect x="1.9209" y="14.2578" width="9.51953" height="1.84961" rx="0.3" fill="white"/>
</g>
</svg>
