<svg version="1.1" xmlns="http://www.w3.org/2000/svg" viewBox="0 0 1084.0197306854664 1035.8015907810127" width="2168.0394613709327" height="2071.6031815620254">
  <!-- svg-source:excalidraw -->
  
  <defs>
    <style>
      @font-face {
        font-family: "Virgil";
        src: url("https://excalidraw.com/Virgil.woff2");
      }
      @font-face {
        font-family: "Cascadia";
        src: url("https://excalidraw.com/Cascadia.woff2");
      }
    </style>
  </defs>
  <rect x="0" y="0" width="1084.0197306854664" height="1035.8015907810127" fill="#ffffff"></rect><g stroke-linecap="round" transform="translate(116.31604573290343 10) rotate(0 460.5 247)"><path d="M-0.14 0.2 C351.89 2.69, 702.98 2.79, 921.59 -0.24 M0.36 -0.36 C303.87 2.43, 607.66 2.93, 921.03 -0.11 M921.7 -0.34 C920.83 119.99, 920.42 240.15, 920.34 494.61 M920.87 -0.36 C920.6 192.68, 919.98 386.13, 920.84 494.26 M921.68 494.44 C727.39 494.35, 532.9 494.57, -0.13 493.58 M921.17 493.85 C633.08 492.42, 344.79 492.39, -0.07 494.17 M-0.46 493.22 C0.26 348.82, -0.47 203.57, -0.04 0.23 M0.3 493.93 C0.73 341.32, 1.02 188.4, -0.31 -0.25" stroke="#000000" stroke-width="1" fill="none"></path></g><g stroke-linecap="round" transform="translate(162.6493790662368 37.333333333333485) rotate(0 186.66666666666663 204.16666666666663)"><path d="M0.06 0.9 C147.27 -0.54, 295.81 -2.45, 372.97 0.13 M0.11 -0.18 C79.18 1.64, 159.75 1.8, 372.98 -0.43 M374.1 0.91 C375 147.31, 372.87 292.3, 373.65 408.14 M373.24 -0.53 C372.08 138.77, 372.12 277.97, 373.62 407.83 M373.03 409.36 C269.21 409.82, 164.52 408.04, 1 407.31 M373.81 407.88 C229.32 407.11, 85.14 407.51, 0.21 408.12 M0.9 407.33 C-1.41 311.53, -2.37 212.77, -1.01 0.33 M0.23 408.68 C0.11 295.12, 0.42 180.49, 0.12 -0.55" stroke="#000000" stroke-width="1" fill="none"></path></g><g transform="translate(309.31604573290355 453.33333333333337) rotate(0 29.5 13)"><text x="0" y="18" font-family="Virgil, Segoe UI Emoji" font-size="20px" fill="#000000" text-anchor="start" style="white-space: pre;" direction="ltr">Nginx </text></g><g stroke-linecap="round" transform="translate(574.3160457329034 39.00000000000017) rotate(0 215.83333333333331 104.16666666666666)"><path d="M0.21 0.21 C166.06 -0.25, 331.59 0.75, 430.7 0.02 M0.3 -0.16 C116.96 -0.47, 233.14 -0.65, 431.84 0.35 M431.05 1.38 C430.45 46.27, 432.2 88.71, 432.19 207.11 M432.39 -0.6 C433.07 78.98, 431.58 157.49, 432.18 208.23 M431.6 208.47 C276.56 207.89, 120.5 206.15, -0.28 207.97 M431.42 207.98 C263.08 209.98, 93.5 210.66, -0.28 208.83 M-0.8 209.11 C-0.15 160.57, 0.16 115.66, -1.42 0.67 M-0.12 208.49 C-1.11 164.22, -0.22 120.91, 0.33 -0.55" stroke="#000000" stroke-width="1" fill="none"></path></g><g transform="translate(710.9827123995701 250.0000000000001) rotate(0 89.49999999999994 13)"><text x="0" y="18" font-family="Virgil, Segoe UI Emoji" font-size="20px" fill="#000000" text-anchor="start" style="white-space: pre;" direction="ltr">Django Application</text></g><g stroke-linecap="round" transform="translate(177.6493790662368 47.333333333333485) rotate(0 173.33333333333326 29.166666666666686)"><path d="M0.19 0.69 C70.57 0.49, 144.29 -0.08, 345.39 -0.39 M0.13 0.12 C83.47 -1.04, 165.83 -0.33, 346.64 0.25 M345.28 0.78 C345.54 19.44, 346 35.33, 347.31 59.37 M346.45 -1 C346.12 17.72, 346.29 34.55, 345.86 59.11 M345.95 58.71 C219.64 59.07, 91.1 56.61, -0.96 57.38 M346.47 57.88 C270.31 59.85, 194.97 59.57, 0.12 57.79 M-1.28 57.69 C0.14 46.24, -0.58 32.61, 1.24 -0.9 M0.3 58.42 C0.31 37.12, 0.67 14.2, -0.58 0.1" stroke="#000000" stroke-width="1" fill="none"></path></g><g transform="translate(287.6493790662368 63.33333333333343) rotate(0 51.5 13)"><text x="0" y="18" font-family="Virgil, Segoe UI Emoji" font-size="20px" fill="#000000" text-anchor="start" style="white-space: pre;" direction="ltr">5thtry.com</text></g><g stroke-linecap="round" transform="translate(177.64937906623703 118.1666666666668) rotate(0 173.33333333333326 29.166666666666686)"><path d="M-0.08 0.03 C113.32 -0.8, 226.44 -2.07, 345.77 -0.73 M-0.12 0.56 C127.85 1.81, 256.53 1.79, 347.26 0.61 M347.22 1.22 C347.34 14.78, 346.71 25.27, 345.58 56.54 M345.82 0.76 C345.88 13.24, 345.44 27.46, 346.14 59.12 M345.43 57.96 C235.03 59.56, 121.88 60.3, -0.87 59.3 M347.12 58.21 C238.66 56.73, 131.31 56.76, -0.43 58.51 M0.48 59.13 C-1.36 39.8, -0.09 19.42, -0.81 1.84 M0.17 57.88 C-0.85 42.97, -0.72 27.23, 0.22 -0.97" stroke="#000000" stroke-width="1" fill="none"></path></g><g transform="translate(214.31604573290355 130.0000000000001) rotate(0 135 13)"><text x="0" y="18" font-family="Virgil, Segoe UI Emoji" font-size="20px" fill="#000000" text-anchor="start" style="white-space: pre;" direction="ltr">Client Server1(c1.5thtry.com)</text></g><g stroke-linecap="round" transform="translate(177.6493790662368 189.83333333333331) rotate(0 173.33333333333326 29.166666666666686)"><path d="M0.89 -0.82 C129.13 0.98, 256.69 2.5, 347.34 0.46 M0.62 0.07 C112.86 0.94, 225.08 0.94, 347.09 -0.29 M346.07 -0.68 C344.48 18.94, 344.46 37.86, 347.24 60.18 M347.1 0.62 C347.38 19.54, 346.12 36.81, 345.67 57.65 M346.95 57.38 C246.59 57.24, 147.88 58.54, 1.3 58.45 M346.37 58.76 C223.12 56.1, 100.46 57.04, 0.44 58.52 M-0.5 57.39 C-0.99 39.15, -0.16 18.64, 1.26 -1.22 M-0.21 58.21 C-0.55 43.8, -0.09 27.48, 0.85 0.01" stroke="#000000" stroke-width="1" fill="none"></path></g><g transform="translate(214.31604573290332 201.66666666666669) rotate(0 144 13)"><text x="0" y="18" font-family="Virgil, Segoe UI Emoji" font-size="20px" fill="#000000" text-anchor="start" style="white-space: pre;" direction="ltr">Client Server2(c2.5thtry.com)</text></g><g stroke-linecap="round" transform="translate(177.6493790662368 259.8333333333333) rotate(0 173.33333333333326 29.166666666666686)"><path d="M0.57 0.82 C112.01 1.75, 221.88 -0.22, 345.36 -0.89 M0.14 -0.48 C99.59 -0.1, 199.85 0.55, 347.32 0.06 M345.76 1.31 C344.69 18.76, 345.46 42.3, 348.01 58.89 M346.42 -0.47 C345.95 20.89, 346.37 41.11, 347.3 57.72 M346.39 58.17 C253.8 58.64, 162.81 57.45, 1.11 58.35 M347.2 58.72 C250 60.23, 152.53 60.03, 0.41 58.48 M0.44 60.06 C0.54 45.39, 0.28 30.58, 0.62 -1.11 M0.6 57.55 C-1.34 36.83, -1.44 16.44, 0.56 0.64" stroke="#000000" stroke-width="1" fill="none"></path></g><g transform="translate(214.31604573290332 271.6666666666667) rotate(0 143.5 13)"><text x="0" y="18" font-family="Virgil, Segoe UI Emoji" font-size="20px" fill="#000000" text-anchor="start" style="white-space: pre;" direction="ltr">Client Server3(c3.5thtry.com)</text></g><g stroke-linecap="round" transform="translate(177.64937906623703 374.8333333333334) rotate(0 173.33333333333326 29.166666666666714)"><path d="M0.37 0.63 C83.92 -1.28, 168.17 -2.14, 345.92 0.74 M-0.4 -0.23 C98.23 -1.68, 197.26 -1.51, 346.03 0.58 M346.69 -0.39 C344.67 16.45, 348.29 30.3, 348.17 57.56 M346.89 -0.48 C346.26 19.83, 346.49 39.03, 346.93 59.2 M345.94 59.09 C239.15 58.89, 129.85 58.01, -1.01 57.49 M347.08 57.99 C272.42 59.71, 199.33 60.14, 0.23 58.54 M-0.79 56.83 C0.5 39.22, -0.55 20.01, 1.89 -1.25 M-0.89 59.21 C0.94 38.81, -0.7 18.41, -0.65 -0.92" stroke="#000000" stroke-width="1" fill="none"></path></g><g transform="translate(214.31604573290355 386.6666666666668) rotate(0 111.5 13.000000000000028)"><text x="0" y="18" font-family="Virgil, Segoe UI Emoji" font-size="20px" fill="#000000" text-anchor="start" style="white-space: pre;" direction="ltr">Wildcard (*.5thtry.com)</text></g><g stroke-linecap="round"><g transform="translate(523.338575361144 65.8022981837751) rotate(0 24.765861956794197 -0.9303828781104215)"><path d="M0.96 0.08 C9.2 -0.35, 41.72 -1.63, 49.53 -1.94 M0.01 -0.92 C8.15 -1.28, 40.64 -0.88, 49 -0.87" stroke="#000000" stroke-width="1" fill="none"></path></g><g transform="translate(523.338575361144 65.8022981837751) rotate(0 24.765861956794197 -0.9303828781104215)"><path d="M49.21 0.85 L34.7 6.5 L37.01 -8.86 L50.55 -2.09" stroke="none" stroke-width="0" fill="#000000" fill-rule="evenodd"></path><path d="M49.1 0.13 C43.76 -0.03, 39.79 4.36, 34.48 6.28 M48.91 -1.05 C43.18 1.68, 38.55 3.05, 34.89 4.98 M35.71 4.56 C34.42 2.72, 34.67 -0.35, 35.11 -6.23 M35.68 5.1 C35 0.35, 35.57 -4.84, 35.42 -6.77 M34.43 -7.06 C39.53 -6.77, 42.55 -4.98, 47.85 0.31 M35.82 -6.67 C39.74 -5.03, 44.14 -2.47, 48.65 -0.55 M49 -0.87 C49 -0.87, 49 -0.87, 49 -0.87 M49 -0.87 C49 -0.87, 49 -0.87, 49 -0.87" stroke="#000000" stroke-width="1" fill="none"></path></g></g><g stroke-linecap="round"><g transform="translate(573.6523800316256 92.28324801034444) rotate(0 -24.543360724607226 1.2869611164196328)"><path d="M0.32 0.6 C-7.89 0.9, -40.17 1.25, -48.19 1.59 M-0.96 -0.13 C-9.48 0.32, -41.47 2.01, -49.41 2.7" stroke="#000000" stroke-width="1" fill="none"></path></g><g transform="translate(573.6523800316256 92.28324801034444) rotate(0 -24.543360724607226 1.2869611164196328)"><path d="M-48.93 1.72 L-36.73 -4.66 L-35.46 8.71 L-50.9 0.92" stroke="none" stroke-width="0" fill="#000000" fill-rule="evenodd"></path><path d="M-48.66 2.05 C-45.24 -0.31, -38.8 -3.64, -36.34 -3.27 M-49.92 2.83 C-45.93 0.62, -42.99 -0.83, -36.85 -3.95 M-35.65 -3.48 C-36.43 -0.1, -36.42 4.82, -36.01 8.66 M-36.18 -4.15 C-36.57 0.15, -35.62 3.5, -35.2 7.49 M-36.12 9.28 C-38.17 6.48, -43.72 4.76, -49.62 3.46 M-35 8.7 C-40.4 6.97, -44.62 5.26, -49.1 2.1 M-49.41 2.7 C-49.41 2.7, -49.41 2.7, -49.41 2.7 M-49.41 2.7 C-49.41 2.7, -49.41 2.7, -49.41 2.7" stroke="#000000" stroke-width="1" fill="none"></path></g></g><g stroke-linecap="round"><g transform="translate(524.735296263621 414.2551177198517) rotate(0 66.72673339412961 0.6871693539181365)"><path d="M-0.26 -0.71 C21.66 -0.76, 109.25 0.48, 131.47 0.73 M1.8 1.53 C24.11 2.17, 111.91 2.01, 133.71 2.08" stroke="#000000" stroke-width="1" fill="none"></path></g></g><g stroke-linecap="round"><g transform="translate(656.0101016546075 416.40716370986786) rotate(0 -0.4271720722298369 -85.0691446757047)"><path d="M-0.76 0.92 C-1.07 -27.64, -1.81 -142.55, -1.91 -171.06 M1.05 0.36 C1.11 -28.03, 0.91 -140.78, 0.36 -169.5" stroke="#000000" stroke-width="1" fill="none"></path></g><g transform="translate(656.0101016546075 416.40716370986786) rotate(0 -0.4271720722298369 -85.0691446757047)"><path d="M0.4 -168.38 L7.74 -157.89 L-6.02 -156.41 L1.93 -169.49" stroke="none" stroke-width="0" fill="#000000" fill-rule="evenodd"></path><path d="M1.51 -170.55 C2.37 -165.75, 5.46 -161.21, 7.58 -156.55 M0.79 -169.65 C2.14 -167.31, 2.66 -163.43, 6.34 -156.68 M6.3 -155.38 C3.07 -155.38, -0.12 -157.18, -5.89 -154.7 M7.24 -155.74 C1.24 -156.14, -2.99 -156.22, -6.36 -156.42 M-6.15 -156.05 C-3.6 -161.17, -1.87 -166.35, -0.98 -168.66 M-5.57 -155.25 C-4.47 -159.98, -1.43 -163.55, 0.81 -168.91 M0.36 -169.5 C0.36 -169.5, 0.36 -169.5, 0.36 -169.5 M0.36 -169.5 C0.36 -169.5, 0.36 -169.5, 0.36 -169.5" stroke="#000000" stroke-width="1" fill="none"></path></g></g><g transform="translate(669.9984005897124 327.78146207926943) rotate(0 188.5 78.5)"><text x="0" y="18.166666666666668" font-family="Virgil, Segoe UI Emoji" font-size="20px" fill="#000000" text-anchor="start" style="white-space: pre;" direction="ltr">No match request. For this request</text><text x="0" y="44.333333333333336" font-family="Virgil, Segoe UI Emoji" font-size="20px" fill="#000000" text-anchor="start" style="white-space: pre;" direction="ltr">Check if any existing packages match</text><text x="0" y="70.5" font-family="Virgil, Segoe UI Emoji" font-size="20px" fill="#000000" text-anchor="start" style="white-space: pre;" direction="ltr">If so, check the container(restart if</text><text x="0" y="96.66666666666667" font-family="Virgil, Segoe UI Emoji" font-size="20px" fill="#000000" text-anchor="start" style="white-space: pre;" direction="ltr">required) else provision a new instance</text><text x="0" y="122.83333333333334" font-family="Virgil, Segoe UI Emoji" font-size="20px" fill="#000000" text-anchor="start" style="white-space: pre;" direction="ltr"></text><text x="0" y="149" font-family="Virgil, Segoe UI Emoji" font-size="20px" fill="#000000" text-anchor="start" style="white-space: pre;" direction="ltr">If no match, 404</text></g><g stroke-linecap="round" transform="translate(117.47448301184096 635.9883217517298) rotate(0 149.36088584937016 171.60612416736137)"><path d="M-1.43 1.2 C84.22 0.94, 168.84 -1.41, 297.65 1.08 M0.15 0.34 C108.97 -0.45, 217.82 -0.09, 299 -0.11 M298.82 -1.24 C297.94 95.73, 298.14 190.12, 298.56 343.73 M299.01 0.62 C299.85 114.36, 300.28 230.12, 299.07 343.54 M298.3 341.81 C205.31 345.22, 113.67 342.77, 0.33 341.76 M298.5 343.41 C237.76 343.27, 177.1 343.35, 0.53 343.67 M1.17 344.04 C-2.28 222.38, -1.67 101.27, -0.64 -0.99 M0.33 343.36 C1.3 238.66, 1.4 133.35, 0.22 -0.13" stroke="#000000" stroke-width="1" fill="none"></path></g><g stroke-linecap="round" transform="translate(128.59710217083665 651.8777776931521) rotate(0 138.23826669037442 135.85484829916106)"><path d="M-1.21 -0.2 C69.14 0.83, 137.54 2.92, 277.35 -1 M-0.5 -0.63 C109.7 -0.74, 220.21 0.1, 276.62 0.5 M275.16 -1.35 C276.11 99.69, 274.34 198.42, 275.27 270.2 M276.51 -0.29 C276.46 101.06, 277.11 202.94, 276.39 272.21 M276.08 270.82 C199.41 271.46, 120.85 270.61, -1.45 271.92 M276.25 271.49 C198.04 273.72, 120.66 274.47, 0.77 271.1 M0.95 272.6 C0.76 206.76, 0.2 140.31, -1.25 -0.69 M0.25 271.21 C-1.8 191.9, -1.29 112.94, -0.33 -0.52" stroke="#000000" stroke-width="1" fill="none"></path></g><g transform="translate(316.0926822796204 928.8879846387546) rotate(0 40 13)"><text x="0" y="18" font-family="Virgil, Segoe UI Emoji" font-size="20px" fill="#000000" text-anchor="start" style="white-space: pre;" direction="ltr">Systemd</text></g><g stroke-linecap="round" transform="translate(136.5418301415478 664.5893424462901) rotate(0 128.70459312552106 57.202041389120495)"><path d="M0.01 0.64 C74.33 1.6, 146.35 2.64, 257.26 1.38 M0.44 -0.37 C64.87 -0.29, 130.36 -0.12, 256.71 -0.75 M257.93 -0.11 C258.92 35.11, 257.59 65.99, 259.37 115.17 M256.66 -0.36 C257.3 35.2, 257.96 70.01, 256.98 113.77 M258.19 113.71 C157.53 117.47, 57.07 114.95, 0.34 112.96 M257.33 114.54 C166.22 116.97, 74.73 116.13, 0.75 114.72 M1.71 116 C-0.41 88.22, -0.1 61.57, -0.67 0.66 M0.15 114.7 C0.49 86.4, 0.13 59.52, 0.13 0.64" stroke="#000000" stroke-width="1" fill="none"></path></g><g transform="translate(236.64540257250854 782.7049899776686) rotate(0 75.5 13)"><text x="0" y="18" font-family="Virgil, Segoe UI Emoji" font-size="20px" fill="#000000" text-anchor="start" style="white-space: pre;" direction="ltr">fpm-app service</text></g><g transform="translate(150.84234048882792 671.4787983877123) rotate(0 96 39)"><text x="0" y="18" font-family="Virgil, Segoe UI Emoji" font-size="20px" fill="#000000" text-anchor="start" style="white-space: pre;" direction="ltr">$ cd ~/www</text><text x="0" y="44" font-family="Virgil, Segoe UI Emoji" font-size="20px" fill="#000000" text-anchor="start" style="white-space: pre;" direction="ltr">$ fpm serve --bind </text><text x="0" y="70" font-family="Virgil, Segoe UI Emoji" font-size="20px" fill="#000000" text-anchor="start" style="white-space: pre;" direction="ltr">  0.0.0.0</text></g><g stroke-linecap="round" transform="translate(452.74200337585245 637.577267345872) rotate(0 149.36088584937016 171.60612416736137)"><path d="M-0.11 -1.25 C69.81 -1.49, 141.28 0.21, 299.65 0.15 M-0.73 -0.69 C62.77 -1.78, 123.74 -1.54, 298.54 -0.49 M298.83 -0.06 C297.19 133.15, 297.89 265.67, 299.5 342.29 M298.69 0.14 C300.27 107.65, 300.2 214.81, 298.68 343.25 M297.65 341.94 C224.4 341.27, 147.98 341.61, 1.18 344.14 M298.14 343.55 C216.07 341.25, 133.98 341.68, -0.65 343.46 M0.24 342.05 C0.25 239.15, 0.16 135.15, 1.18 0.31 M-0.06 342.95 C2.16 256.64, 2.39 168.51, -0.28 0.24" stroke="#000000" stroke-width="1" fill="none"></path></g><g stroke-linecap="round" transform="translate(463.86462253484814 653.4667232872943) rotate(0 138.23826669037442 135.85484829916106)"><path d="M-1.31 -1.39 C59.89 -0.87, 122.67 1.14, 276.64 -1.42 M-0.72 0.73 C60.16 1.68, 121.32 1.93, 275.97 0.68 M276.41 0.2 C274.87 62.18, 273.97 123.24, 275.38 271.91 M276.64 -0.05 C275.65 100.4, 275.48 201, 276.52 271.33 M275.14 272.53 C178.3 269.59, 81.75 271.4, 0.97 271.34 M276.83 271.51 C174.7 270.21, 74.07 269.34, 0.26 271.75 M-1.38 270.94 C1.11 200.12, 1.9 131.67, 0.36 -0.72 M-0.3 272.08 C-0.18 212.92, -1.32 152.52, 0.28 -0.07" stroke="#000000" stroke-width="1" fill="none"></path></g><g transform="translate(651.3602026436317 930.4769302328967) rotate(0 40 13)"><text x="0" y="18" font-family="Virgil, Segoe UI Emoji" font-size="20px" fill="#000000" text-anchor="start" style="white-space: pre;" direction="ltr">Systemd</text></g><g stroke-linecap="round" transform="translate(471.8093505055593 666.1782880404322) rotate(0 128.70459312552106 57.202041389120495)"><path d="M-1.15 -1.07 C75.99 2.87, 150.72 0.38, 256.13 0.79 M-0.77 -0.46 C51.16 -2.14, 102.8 -1.24, 256.81 -0.55 M257.2 1.32 C255.98 36.44, 255.96 70.76, 258.81 113.23 M257.94 -0.17 C257.96 33.7, 257.71 67.05, 257.91 114.07 M256.09 113.81 C197.93 116.79, 141.35 115.11, 1.06 113.45 M256.69 114.59 C200.19 113.14, 143.73 113.9, -0.32 114.26 M0.92 113.28 C2.93 79.78, 1.47 40.66, -1.63 0.83 M0.9 115.23 C-0.12 80.74, 0.8 47.82, 0.48 0.36" stroke="#000000" stroke-width="1" fill="none"></path></g><g transform="translate(571.9129229365201 784.2939355718107) rotate(0 75.5 13)"><text x="0" y="18" font-family="Virgil, Segoe UI Emoji" font-size="20px" fill="#000000" text-anchor="start" style="white-space: pre;" direction="ltr">fpm-app service</text></g><g transform="translate(486.1098608528394 673.0677439818545) rotate(0 96 39)"><text x="0" y="18" font-family="Virgil, Segoe UI Emoji" font-size="20px" fill="#000000" text-anchor="start" style="white-space: pre;" direction="ltr">$ cd ~/www</text><text x="0" y="44" font-family="Virgil, Segoe UI Emoji" font-size="20px" fill="#000000" text-anchor="start" style="white-space: pre;" direction="ltr">$ fpm serve --bind </text><text x="0" y="70" font-family="Virgil, Segoe UI Emoji" font-size="20px" fill="#000000" text-anchor="start" style="white-space: pre;" direction="ltr">  0.0.0.0</text></g><g stroke-linecap="round" transform="translate(775.2979589867259 635.9883217517298) rotate(0 149.36088584937022 171.60612416736137)"><path d="M-1.12 0.02 C110.7 -0.57, 221.81 0.16, 297.64 -1.09 M-0.26 0.09 C69.55 1.69, 138.65 1.49, 298.83 -0.14 M297.66 0.42 C297.12 99.33, 297.23 196.44, 299.5 342.44 M298.27 -0.1 C297.61 70.67, 297.84 141.87, 299.34 343.86 M298.4 342.93 C212.15 345.53, 126.09 343.92, -1.25 342.64 M298.93 343.25 C183.07 343.52, 68.4 343.79, -0.17 343.57 M1.07 343.55 C2.02 206.44, 0.6 71.32, 0.97 0.44 M0 343.03 C-1.17 261.6, -1.74 179.01, 0.21 0.47" stroke="#000000" stroke-width="1" fill="none"></path></g><g stroke-linecap="round" transform="translate(786.4205781457215 651.8777776931521) rotate(0 138.23826669037442 135.85484829916106)"><path d="M0.02 -0.02 C61.13 2.03, 122.37 0.5, 275.34 -1.04 M0.09 -0.04 C73.88 0.19, 146.98 0.88, 276.33 -0.1 M276.97 -0.11 C277.84 63.41, 276.14 127.69, 275.57 270.26 M276.35 0.16 C275.6 66.99, 275.71 133.85, 277.24 271.64 M276.18 272.17 C199.55 272.7, 120.49 269.92, -0.6 273.03 M276.52 271.14 C175.67 272.22, 75.22 272.15, 0.38 272.45 M0.4 272.41 C-0.15 206.23, 0.47 143.85, 0.52 -0.95 M-0.22 272.19 C-0.77 171.19, -1.39 71.31, 0.56 0.59" stroke="#000000" stroke-width="1" fill="none"></path></g><g transform="translate(973.9161582545055 928.8879846387546) rotate(0 40 13)"><text x="0" y="18" font-family="Virgil, Segoe UI Emoji" font-size="20px" fill="#000000" text-anchor="start" style="white-space: pre;" direction="ltr">Systemd</text></g><g stroke-linecap="round" transform="translate(794.3653061164327 664.5893424462901) rotate(0 128.704593125521 57.202041389120495)"><path d="M0.69 0.41 C59.05 -1.15, 113.91 -1.05, 256.85 -0.85 M0.58 -0.6 C68.42 0.24, 135.97 0.01, 256.87 0.16 M258.61 0.03 C256.79 26.35, 256.61 48.48, 256.31 114.07 M256.75 0.55 C256.71 27.52, 258.21 53.09, 257.21 115.26 M257.88 115.92 C184.6 113.65, 113.74 116.4, 1.03 114.69 M257.33 114.29 C172.96 112.7, 88.49 113.65, -0.5 113.96 M-1.69 113.16 C-1.19 72.29, 0.37 26.04, 1.38 1.24 M0.7 114.15 C0.22 80.44, 1.03 46.6, -0.84 -0.1" stroke="#000000" stroke-width="1" fill="none"></path></g><g transform="translate(894.4688785473934 782.7049899776686) rotate(0 75.5 13)"><text x="0" y="18" font-family="Virgil, Segoe UI Emoji" font-size="20px" fill="#000000" text-anchor="start" style="white-space: pre;" direction="ltr">fpm-app service</text></g><g transform="translate(808.6658164637129 671.4787983877123) rotate(0 96 39)"><text x="0" y="18" font-family="Virgil, Segoe UI Emoji" font-size="20px" fill="#000000" text-anchor="start" style="white-space: pre;" direction="ltr">$ cd ~/www</text><text x="0" y="44" font-family="Virgil, Segoe UI Emoji" font-size="20px" fill="#000000" text-anchor="start" style="white-space: pre;" direction="ltr">$ fpm serve --bind </text><text x="0" y="70" font-family="Virgil, Segoe UI Emoji" font-size="20px" fill="#000000" text-anchor="start" style="white-space: pre;" direction="ltr">  0.0.0.0</text></g><g stroke-linecap="round"><g transform="translate(185.79914355995714 145.00413316177918) rotate(0 -87.26049203743005 1.185950202723518)"><path d="M0.69 0.09 C-28.34 0.45, -145.84 1.85, -175.21 2.28" stroke="#000000" stroke-width="1.5" fill="none" stroke-dasharray="8 9"></path></g></g><g stroke-linecap="round"><g transform="translate(11.015128204311225 143.4151875676369) rotate(0 -0.8507212358019274 326.1654608229778)"><path d="M-0.69 0.52 C-0.88 108.97, -0.78 543.41, -1.02 651.81" stroke="#000000" stroke-width="1.5" fill="none" stroke-dasharray="8 9"></path></g></g><g stroke-linecap="round"><g transform="translate(176.26546999510373 221.27352168060645) rotate(0 -54.82164635373388 0.5038221322148786)"><path d="M-0.22 0.4 C-18.36 0.67, -91.32 0.64, -109.42 0.52" stroke="#000000" stroke-width="1.5" fill="none" stroke-dasharray="8 9"></path></g></g><g stroke-linecap="round"><g transform="translate(68.21716959343172 224.45141286889088) rotate(0 0.6443120908409412 188.84871361534027)"><path d="M0.7 0.37 C0.65 63.13, 0.57 314.79, 0.59 377.32" stroke="#000000" stroke-width="1.5" fill="none" stroke-dasharray="8 9"></path></g></g><g stroke-linecap="round"><g transform="translate(68.21716959343172 599.4425730864584) rotate(0 251.51104886329827 -0.2151318434625864)"><path d="M-0.09 0.43 C83.67 0.36, 419 -0.9, 503.12 -0.86" stroke="#000000" stroke-width="1.5" fill="none" stroke-dasharray="8 9"></path></g></g><g stroke-linecap="round"><g transform="translate(179.44336118338816 297.5429101994338) rotate(0 -45.049203674261776 -0.31286477409301483)"><path d="M-0.74 0.05 C-15.6 0.03, -74.62 -0.72, -89.36 -0.67" stroke="#000000" stroke-width="1.5" fill="none" stroke-dasharray="8 9"></path></g></g><g stroke-linecap="round"><g transform="translate(92.05135350556526 294.36501901114923) rotate(0 -0.26776932958065913 130.10562368022823)"><path d="M0.03 -0.81 C-0.02 42.6, -0.64 217.26, -0.57 261.02" stroke="#000000" stroke-width="1.5" fill="none" stroke-dasharray="8 9"></path></g></g><g stroke-linecap="round"><g transform="translate(90.46240791142299 551.7742052621913) rotate(0 409.29125085104687 0.6303096290677672)"><path d="M-0.31 0.95 C136.15 0.97, 682.27 0.51, 818.9 0.31" stroke="#000000" stroke-width="1.5" fill="none" stroke-dasharray="8 9"></path></g></g><g stroke-linecap="round"><g transform="translate(922.2651209325938 555.8607737665603) rotate(0 0.686895250162479 43.44389230744753)"><path d="M1.01 0.91 C1.08 15.06, 0.56 71.92, 0.36 85.98" stroke="#000000" stroke-width="1.5" fill="none" stroke-dasharray="8 9"></path></g><g transform="translate(922.2651209325938 555.8607737665603) rotate(0 0.686895250162479 43.44389230744753)"><path d="M0.43 85.73 L-4.31 73.52 L7.25 74 L-0.82 85.66" stroke="none" stroke-width="0" fill="#000000" fill-rule="evenodd"></path><path d="M1.5 86.43 C-0.22 81.82, -2.9 78.51, -5.1 71.69 M-6.33 72.71 C-0.55 72.11, 4.26 73.61, 5.9 72.01 M5.91 72.82 C3.03 78.91, 1.87 83.16, 0.04 85.89 M0.36 85.98 C0.36 85.98, 0.36 85.98, 0.36 85.98" stroke="#000000" stroke-width="1.5" fill="none"></path></g></g><g stroke-linecap="round"><g transform="translate(573.5018685306625 599.4425730864584) rotate(0 0.883248414668401 19.730846474820794)"><path d="M0.62 -0.7 C0.99 6.13, 1.22 33.45, 1.12 40.16" stroke="#000000" stroke-width="1.5" fill="none" stroke-dasharray="8 9"></path></g><g transform="translate(573.5018685306625 599.4425730864584) rotate(0 0.883248414668401 19.730846474820794)"><path d="M2.86 40.2 L-5.45 26.21 L7.48 26.73 L1.35 40.73" stroke="none" stroke-width="0" fill="#000000" fill-rule="evenodd"></path><path d="M0.25 41.56 C0.42 37.36, -1.65 35.57, -4.31 26.87 M-4.89 25.48 C-1.35 26.04, 5 26.84, 6.62 26.52 M8.74 26.87 C6.05 30.92, 5.65 33.89, -0.3 40.18 M1.12 40.16 C1.12 40.16, 1.12 40.16, 1.12 40.16" stroke="#000000" stroke-width="1.5" fill="none"></path></g></g><g stroke-linecap="round"><g transform="translate(14.193019392595772 791.7049899776689) rotate(0 51.537908122049174 0.19416456185285824)"><path d="M0.37 0.15 C17.49 0.32, 85.82 0.11, 102.71 0.24" stroke="#000000" stroke-width="1.5" fill="none" stroke-dasharray="8 9"></path></g><g transform="translate(14.193019392595772 791.7049899776689) rotate(0 51.537908122049174 0.19416456185285824)"><path d="M103.65 0.4 L90.6 5.46 L87.54 -7.4 L103.55 -0.94" stroke="none" stroke-width="0" fill="#000000" fill-rule="evenodd"></path><path d="M102.89 1.51 C98.94 2.18, 95.78 5.12, 90.08 5.13 M88.21 5.42 C90.3 3.84, 88.92 0.06, 89.87 -7.25 M88.94 -6.39 C93.08 -4.18, 97.13 -2.05, 102.58 0.7 M102.71 0.24 C102.71 0.24, 102.71 0.24, 102.71 0.24" stroke="#000000" stroke-width="1.5" fill="none"></path></g></g><g transform="translate(818.1994900285661 507.5842389734887) rotate(0 107.5 18)"><text x="0" y="25" font-family="Virgil, Segoe UI Emoji" font-size="28px" fill="#000000" text-anchor="start" style="white-space: pre;" direction="ltr">ENTRY SERVER</text></g><g transform="translate(141.30866692397427 985.8568628103015) rotate(0 126.5 18)"><text x="0" y="25" font-family="Virgil, Segoe UI Emoji" font-size="28px" fill="#000000" text-anchor="start" style="white-space: pre;" direction="ltr">CLIENT SERVER 1</text></g><g transform="translate(479.82397734237753 989.8015907810126) rotate(0 133 18)"><text x="0" y="25" font-family="Virgil, Segoe UI Emoji" font-size="28px" fill="#000000" text-anchor="start" style="white-space: pre;" direction="ltr">CLIENT SERVER 2</text></g><g transform="translate(802.3799329532519 988.2126451868702) rotate(0 132.5 18)"><text x="0" y="25" font-family="Virgil, Segoe UI Emoji" font-size="28px" fill="#000000" text-anchor="start" style="white-space: pre;" direction="ltr">CLIENT SERVER 3</text></g></svg>