<svg width="205" height="25" viewBox="0 0 205 25" fill="none" xmlns="http://www.w3.org/2000/svg">
<path d="M2.85752 18.5591V5.19088C2.85752 4.85129 2.8658 4.46614 2.88236 4.03545C2.89893 3.60475 2.96519 3.16991 3.08115 2.73093C3.20539 2.29195 3.42902 1.89438 3.75204 1.53822C4.16618 1.0744 4.61344 0.759655 5.09383 0.594002C5.58251 0.420066 6.05462 0.328957 6.51017 0.320675C6.96571 0.30411 7.355 0.295827 7.67802 0.295827H9.34284V3.0291H7.80226C7.27217 3.0291 6.87875 3.16577 6.62198 3.4391C6.36522 3.70414 6.23684 4.02302 6.23684 4.39574V18.5591H2.85752ZM0.745439 7.75022V5.14118H9.34284V7.75022H0.745439ZM14.6875 18.9318C13.7267 18.9318 12.9108 18.7496 12.24 18.3851C11.5773 18.0124 11.0721 17.5196 10.7242 16.9067C10.3846 16.2855 10.2148 15.6022 10.2148 14.8567C10.2148 14.2355 10.3101 13.6682 10.5006 13.1546C10.6911 12.6411 10.9976 12.1897 11.42 11.8004C11.8507 11.4029 12.4263 11.0716 13.1469 10.8065C13.6439 10.6243 14.2361 10.4628 14.9235 10.322C15.611 10.1812 16.3896 10.0487 17.2592 9.92441C18.1289 9.79189 19.0856 9.64694 20.1292 9.48957L18.9116 10.1605C18.9116 9.36533 18.7211 8.78141 18.3401 8.40869C17.9591 8.03597 17.3214 7.84961 16.4268 7.84961C15.9299 7.84961 15.4122 7.96971 14.8738 8.2099C14.3355 8.4501 13.9586 8.87666 13.7433 9.48957L10.687 8.5205C11.0265 7.41063 11.6643 6.50782 12.6002 5.81208C13.5362 5.11633 14.8117 4.76846 16.4268 4.76846C17.6113 4.76846 18.6632 4.95068 19.5825 5.31512C20.5019 5.67955 21.1976 6.30903 21.6698 7.20356C21.9348 7.70052 22.0922 8.19748 22.1419 8.69444C22.1916 9.1914 22.2164 9.74634 22.2164 10.3593V18.5591H19.2595V15.801L19.6819 16.3725C19.0276 17.2753 18.3194 17.9296 17.5574 18.3355C16.8037 18.733 15.847 18.9318 14.6875 18.9318ZM15.4081 16.2731C16.0293 16.2731 16.5511 16.1654 16.9735 15.95C17.4042 15.7264 17.7438 15.4738 17.9923 15.1922C18.249 14.9106 18.423 14.6745 18.5141 14.484C18.688 14.1196 18.7874 13.6972 18.8122 13.2168C18.8454 12.7281 18.8619 12.3222 18.8619 11.9992L19.8559 12.2477C18.8537 12.4134 18.042 12.5542 17.4208 12.6701C16.7996 12.7778 16.2985 12.8772 15.9175 12.9683C15.5364 13.0594 15.201 13.1588 14.9111 13.2665C14.5798 13.399 14.3106 13.5439 14.1035 13.7013C13.9048 13.8504 13.7557 14.016 13.6563 14.1983C13.5652 14.3805 13.5196 14.5834 13.5196 14.807C13.5196 15.1135 13.5942 15.3785 13.7433 15.6022C13.9006 15.8175 14.1201 15.9832 14.4017 16.0991C14.6833 16.2151 15.0188 16.2731 15.4081 16.2731ZM30.6898 18.9318C29.0001 18.9318 27.6335 18.5508 26.5898 17.7888C25.5545 17.0185 24.925 15.9335 24.7014 14.5337L28.1553 14.0119C28.2961 14.6414 28.6067 15.1342 29.0871 15.4904C29.5757 15.8465 30.1928 16.0246 30.9382 16.0246C31.5512 16.0246 32.0233 15.9086 32.3546 15.6767C32.6859 15.4365 32.8515 15.1052 32.8515 14.6828C32.8515 14.4178 32.7853 14.2065 32.6527 14.0492C32.5202 13.8835 32.2221 13.722 31.7582 13.5646C31.3027 13.4073 30.5904 13.2002 29.6213 12.9434C28.528 12.6618 27.6542 12.3471 26.9998 11.9992C26.3455 11.6513 25.8734 11.2372 25.5835 10.7568C25.2936 10.2681 25.1487 9.68008 25.1487 8.99261C25.1487 8.13122 25.3682 7.38578 25.8071 6.7563C26.2461 6.11853 26.8632 5.62986 27.6583 5.29027C28.4617 4.9424 29.4059 4.76846 30.491 4.76846C31.5429 4.76846 32.4747 4.92997 33.2864 5.253C34.0981 5.57602 34.7524 6.03571 35.2494 6.63206C35.7546 7.22841 36.0652 7.93243 36.1812 8.74414L32.7273 9.36533C32.6693 8.86838 32.454 8.47495 32.0812 8.18506C31.7085 7.89516 31.2033 7.72537 30.5655 7.67567C29.9443 7.63426 29.4432 7.71709 29.0622 7.92415C28.6895 8.13122 28.5031 8.42939 28.5031 8.81868C28.5031 9.05059 28.5818 9.24524 28.7392 9.40261C28.9048 9.55998 29.2403 9.72149 29.7455 9.88714C30.2591 10.0528 31.0376 10.2681 32.0812 10.5332C33.1 10.7982 33.9159 11.1088 34.5288 11.465C35.15 11.8129 35.6014 12.2353 35.883 12.7322C36.1646 13.2209 36.3054 13.8131 36.3054 14.5089C36.3054 15.8838 35.8084 16.9647 34.8145 17.7515C33.8206 18.5384 32.4457 18.9318 30.6898 18.9318ZM47.0863 18.5591C46.1587 18.733 45.2476 18.8076 44.353 18.7827C43.4668 18.7661 42.6717 18.6129 41.9676 18.323C41.2719 18.0249 40.7418 17.5486 40.3774 16.8943C40.0461 16.2814 39.8721 15.6602 39.8556 15.0307C39.839 14.3929 39.8307 13.6723 39.8307 12.8689V1.41398H43.21V12.6701C43.21 13.1919 43.2142 13.664 43.2225 14.0864C43.239 14.5006 43.326 14.8319 43.4834 15.0804C43.7815 15.5525 44.2578 15.8092 44.9121 15.8507C45.5664 15.8921 46.2912 15.8589 47.0863 15.7513V18.5591ZM37.5447 7.75022V5.14118H47.0863V7.75022H37.5447ZM59.2205 18.5591V12.2229C59.2205 11.9164 59.2039 11.5271 59.1708 11.055C59.1376 10.5746 59.0341 10.0942 58.8602 9.61381C58.6862 9.13342 58.4005 8.73171 58.0029 8.40869C57.6136 8.08566 57.0587 7.92415 56.3381 7.92415C56.0482 7.92415 55.7376 7.96971 55.4063 8.06082C55.075 8.15193 54.7644 8.33 54.4745 8.59505C54.1846 8.85181 53.9444 9.23281 53.7539 9.73805C53.5717 10.2433 53.4806 10.9142 53.4806 11.7507L51.5424 10.8314C51.5424 9.77118 51.7578 8.77727 52.1885 7.84961C52.6192 6.92195 53.2652 6.17237 54.1266 5.60087C54.9963 5.02936 56.0896 4.74361 57.4066 4.74361C58.4585 4.74361 59.3157 4.92169 59.9783 5.27784C60.6409 5.634 61.1545 6.0854 61.5189 6.63206C61.8916 7.17871 62.1567 7.75022 62.314 8.34657C62.4714 8.93464 62.5667 9.47301 62.5998 9.96169C62.6329 10.4504 62.6495 10.8065 62.6495 11.0301V18.5591H59.2205ZM50.0516 18.5591V5.14118H53.0582V9.58897H53.4806V18.5591H50.0516Z" fill="#EF8435"/>
<path d="M78.2028 18.9318C76.422 18.9318 74.9104 18.5384 73.668 17.7515C72.4256 16.9647 71.4772 15.8714 70.8229 14.4716C70.1769 13.0718 69.8538 11.4526 69.8538 9.61381C69.8538 7.77506 70.1769 6.15581 70.8229 4.75604C71.4772 3.35627 72.4256 2.26296 73.668 1.4761C74.9104 0.689253 76.422 0.295827 78.2028 0.295827C80.2734 0.295827 81.9755 0.821776 83.309 1.87367C84.6508 2.92557 85.5743 4.3419 86.0796 6.12267L83.8308 6.71903C83.4664 5.38552 82.8162 4.33362 81.8803 3.56333C80.9443 2.79305 79.7185 2.4079 78.2028 2.4079C76.8693 2.4079 75.7594 2.71022 74.8731 3.31485C73.9869 3.91949 73.3201 4.76432 72.8729 5.84935C72.4256 6.92609 72.1978 8.18091 72.1896 9.61381C72.1813 11.0384 72.4008 12.2933 72.848 13.3783C73.2953 14.455 73.9662 15.2999 74.8607 15.9128C75.7552 16.5174 76.8693 16.8197 78.2028 16.8197C79.7185 16.8197 80.9443 16.4346 81.8803 15.6643C82.8162 14.8857 83.4664 13.8338 83.8308 12.5086L86.0796 13.105C85.5743 14.8774 84.6508 16.2938 83.309 17.354C81.9755 18.4059 80.2734 18.9318 78.2028 18.9318ZM94.5193 18.9318C93.1858 18.9318 92.0345 18.6295 91.0655 18.0249C90.1047 17.4202 89.3634 16.5837 88.8416 15.5152C88.3198 14.4467 88.0589 13.2209 88.0589 11.8377C88.0589 10.4297 88.3239 9.19554 88.854 8.13536C89.3841 7.07518 90.1337 6.25106 91.1027 5.66299C92.0718 5.06664 93.2107 4.76846 94.5193 4.76846C95.8611 4.76846 97.0166 5.07078 97.9856 5.67541C98.9547 6.27176 99.696 7.10417 100.21 8.17263C100.731 9.23281 100.992 10.4545 100.992 11.8377C100.992 13.2375 100.731 14.4716 100.21 15.5401C99.6877 16.6002 98.9423 17.4326 97.9732 18.0373C97.0041 18.6336 95.8528 18.9318 94.5193 18.9318ZM94.5193 16.8321C95.9108 16.8321 96.9461 16.3683 97.6253 15.4407C98.3045 14.513 98.6441 13.312 98.6441 11.8377C98.6441 10.322 98.3004 9.11685 97.6129 8.22233C96.9254 7.31952 95.8943 6.86811 94.5193 6.86811C93.5834 6.86811 92.8131 7.07932 92.2085 7.50174C91.6038 7.92415 91.1524 8.50808 90.8543 9.25352C90.5561 9.99896 90.407 10.8604 90.407 11.8377C90.407 13.3452 90.7549 14.5544 91.4506 15.4655C92.1464 16.3766 93.1693 16.8321 94.5193 16.8321ZM119.767 18.5591L119.779 9.97411C119.779 8.97191 119.51 8.1892 118.972 7.62598C118.442 7.05447 117.75 6.76872 116.897 6.76872C116.4 6.76872 115.928 6.88468 115.481 7.11659C115.033 7.34023 114.669 7.69638 114.387 8.18506C114.106 8.66545 113.965 9.28251 113.965 10.0362L112.797 9.56412C112.781 8.61161 112.975 7.77921 113.381 7.0669C113.795 6.34631 114.358 5.78723 115.071 5.38966C115.783 4.99209 116.586 4.79331 117.481 4.79331C118.881 4.79331 119.982 5.21987 120.786 6.07298C121.589 6.91781 121.991 8.05667 121.991 9.48957L121.978 18.5591H119.767ZM103.715 18.5591V5.14118H105.691V8.73171H105.939V18.5591H103.715ZM111.754 18.5591L111.766 10.0611C111.766 9.03403 111.501 8.23061 110.971 7.65083C110.441 7.06276 109.737 6.76872 108.859 6.76872C107.989 6.76872 107.285 7.0669 106.747 7.66325C106.208 8.2596 105.939 9.05059 105.939 10.0362L104.771 9.34049C104.771 8.47081 104.978 7.69224 105.392 7.00478C105.807 6.31732 106.37 5.77894 107.082 5.38966C107.794 4.99209 108.602 4.79331 109.505 4.79331C110.408 4.79331 111.194 4.98381 111.865 5.36481C112.536 5.74581 113.054 6.29247 113.418 7.00478C113.783 7.7088 113.965 8.54949 113.965 9.52685L113.953 18.5591H111.754ZM141.266 18.5591L141.279 9.97411C141.279 8.97191 141.01 8.1892 140.471 7.62598C139.941 7.05447 139.249 6.76872 138.396 6.76872C137.899 6.76872 137.427 6.88468 136.98 7.11659C136.533 7.34023 136.168 7.69638 135.887 8.18506C135.605 8.66545 135.464 9.28251 135.464 10.0362L134.296 9.56412C134.28 8.61161 134.475 7.77921 134.88 7.0669C135.295 6.34631 135.858 5.78723 136.57 5.38966C137.282 4.99209 138.086 4.79331 138.98 4.79331C140.38 4.79331 141.482 5.21987 142.285 6.07298C143.088 6.91781 143.49 8.05667 143.49 9.48957L143.478 18.5591H141.266ZM125.215 18.5591V5.14118H127.19V8.73171H127.438V18.5591H125.215ZM133.253 18.5591L133.265 10.0611C133.265 9.03403 133 8.23061 132.47 7.65083C131.94 7.06276 131.236 6.76872 130.358 6.76872C129.488 6.76872 128.784 7.0669 128.246 7.66325C127.708 8.2596 127.438 9.05059 127.438 10.0362L126.271 9.34049C126.271 8.47081 126.478 7.69224 126.892 7.00478C127.306 6.31732 127.869 5.77894 128.581 5.38966C129.294 4.99209 130.101 4.79331 131.004 4.79331C131.907 4.79331 132.694 4.98381 133.365 5.36481C134.036 5.74581 134.553 6.29247 134.918 7.00478C135.282 7.7088 135.464 8.54949 135.464 9.52685L135.452 18.5591H133.253ZM151.82 18.907C150.959 18.907 150.217 18.7703 149.596 18.497C148.983 18.2236 148.474 17.8592 148.068 17.4037C147.662 16.9481 147.343 16.4429 147.111 15.8879C146.879 15.333 146.714 14.7656 146.614 14.1858C146.523 13.6061 146.478 13.0635 146.478 12.5583V5.14118H148.714V11.8626C148.714 12.492 148.772 13.1008 148.888 13.6889C149.004 14.2769 149.199 14.807 149.472 15.2792C149.754 15.7513 150.126 16.124 150.59 16.3973C151.062 16.6706 151.65 16.8073 152.354 16.8073C152.909 16.8073 153.415 16.712 153.87 16.5215C154.326 16.331 154.715 16.0494 155.038 15.6767C155.361 15.2957 155.609 14.8153 155.783 14.2355C155.957 13.6558 156.044 12.9807 156.044 12.2104L157.498 12.6577C157.498 13.9498 157.262 15.0638 156.79 15.9997C156.326 16.9357 155.667 17.6563 154.814 18.1615C153.969 18.6585 152.971 18.907 151.82 18.907ZM156.293 18.5591V14.9686H156.044V5.14118H158.268V18.5591H156.293ZM171.301 18.5591V11.8377C171.301 11.1999 171.243 10.587 171.127 9.99896C171.019 9.41089 170.824 8.88494 170.543 8.42111C170.27 7.949 169.897 7.57628 169.425 7.30295C168.961 7.02963 168.373 6.89296 167.66 6.89296C167.106 6.89296 166.6 6.98821 166.145 7.17871C165.697 7.36093 165.312 7.64254 164.989 8.02354C164.666 8.40455 164.414 8.88494 164.231 9.46473C164.058 10.0362 163.971 10.7113 163.971 11.4898L162.517 11.0426C162.517 9.7422 162.749 8.62818 163.213 7.70052C163.685 6.76458 164.343 6.04813 165.188 5.55117C166.041 5.04593 167.043 4.79331 168.195 4.79331C169.064 4.79331 169.806 4.92997 170.419 5.2033C171.032 5.47663 171.541 5.84106 171.947 6.29661C172.353 6.74387 172.671 7.24912 172.903 7.81234C173.135 8.36727 173.297 8.93464 173.388 9.51442C173.487 10.0859 173.537 10.6284 173.537 11.142V18.5591H171.301ZM161.734 18.5591V5.14118H163.722V8.73171H163.971V18.5591H161.734ZM177.016 2.7682V0.482187H179.227V2.7682H177.016ZM177.016 18.5591V5.14118H179.227V18.5591H177.016ZM190.446 18.5591C189.651 18.7165 188.864 18.7786 188.086 18.7454C187.316 18.7206 186.628 18.5674 186.024 18.2858C185.419 17.9959 184.959 17.5486 184.644 16.944C184.379 16.4139 184.234 15.8796 184.21 15.3413C184.193 14.7946 184.185 14.1776 184.185 13.4901V1.41398H186.396V13.3907C186.396 13.9374 186.4 14.4053 186.409 14.7946C186.425 15.1839 186.512 15.5193 186.67 15.801C186.968 16.331 187.44 16.6416 188.086 16.7328C188.74 16.8239 189.527 16.799 190.446 16.6582V18.5591ZM181.464 6.96751V5.14118H190.446V6.96751H181.464ZM194.67 24.5226L197.267 17.4658L197.304 19.553L191.44 5.14118H193.763L198.36 16.7328H197.565L201.876 5.14118H204.125L196.82 24.5226H194.67Z" fill="#C6C6C6"/>
</svg>
