<svg width="22" height="23" viewBox="0 0 22 23" fill="none" xmlns="http://www.w3.org/2000/svg">
<mask id="mask0_2080_4812" style="mask-type:luminance" maskUnits="userSpaceOnUse" x="0" y="0" width="22" height="23">
<path d="M11 21.5737C12.3135 21.5754 13.6143 21.3176 14.8278 20.8149C16.0413 20.3122 17.1435 19.5747 18.071 18.6447C19.001 17.7172 19.7385 16.615 20.2412 15.4015C20.7438 14.1881 21.0017 12.8872 21 11.5737C21.0017 10.2603 20.7438 8.95943 20.2411 7.74595C19.7385 6.53248 19.001 5.43029 18.071 4.50274C17.1435 3.57275 16.0413 2.83524 14.8278 2.33258C13.6143 1.82993 12.3135 1.57204 11 1.57374C9.68655 1.57206 8.3857 1.82996 7.17222 2.33262C5.95875 2.83527 4.85656 3.57277 3.92901 4.50274C2.99904 5.43029 2.26154 6.53248 1.75889 7.74595C1.25623 8.95943 0.998334 10.2603 1.00001 11.5737C0.998307 12.8872 1.25619 14.1881 1.75885 15.4015C2.26151 16.615 2.99902 17.7172 3.92901 18.6447C4.85656 19.5747 5.95875 20.3122 7.17222 20.8149C8.3857 21.3175 9.68655 21.5754 11 21.5737Z" fill="white" stroke="white" stroke-width="2" stroke-linejoin="round"/>
<path d="M7 11.5737L10 14.5737L16 8.57373" stroke="black" stroke-width="2" stroke-linecap="round" stroke-linejoin="round"/>
</mask>
<g mask="url(#mask0_2080_4812)">
<path d="M-1 -0.429199H23V23.5708H-1V-0.429199Z" fill="#E78B3E"/>
</g>
</svg>
